File Size:807mb

Release Notes:Source IFLIX video was very dark and dull cleaned it up quite a bit muxed audio to 5.1 AC3 all in all very watchable enjoy

Video: ID : 0
Format : MPEG-4 Visual
Format profile : Advanced Simple@L5
Format settings, BVOP : Yes
Format settings, QPel : No
Format settings, GMC : No warppoints
Format settings, Matrix : Default (H.263)
Codec ID : XVID
Codec ID/Hint : XviD
Duration : 1h 15mn
Bit rate : 1 090 Kbps
Width : 704 pixels
Height : 412 pixels
Display aspect ratio : 16:9
Frame rate : 29.970 fps
Color space : YUV
Chroma subsampling : 4:2:0
Bit depth : 8 bits
Scan type : Progressive
Bits/(Pixel*Frame) : 0.125
Stream size : 592 MiB (73%)
Writing library : XviD 1.2.1 (UTC 2008-12-04)

Audio: ID : 1
Format : AC-3
Format/Info : Audio Coding 3
Mode extension : CM (complete main)
Codec ID : 2000
Duration : 1h 15mn
Bit rate mode : Constant
Bit rate : 384 Kbps
Channel(s) : 6 channels
Channel positions : Front: L C R, Side: L R, LFE
Sampling rate : 48.0 KHz
Bit depth : 16 bits
Stream size : 209 MiB (26%)
Alignment : Aligned on interleaves
Interleave, duration : 32 ms (0.96 video frame)

Duration:1:15

Release Date:2010

Language:English

Plot: A group of people trapped in an elevator realize that the devil is among them.






================================== 
http://thepiratebay.org/user/hiest
==================================







Screen Shots:




